# 3ds Max Wavefront OBJ Exporter v0.97b - (c)2007 guruware
# File Created: 18.03.2015 11:44:26

mtllib stonewall.mtl

#
# object Box001
#

v  -39.370079 0.000000 42.322834
v  39.370079 0.000000 42.322834
v  -39.370079 0.000000 36.417324
v  39.370079 0.000000 36.417324
v  -39.370079 7.874016 42.322834
v  39.370079 7.874016 42.322834
v  -39.370079 7.874016 36.417324
v  39.370079 7.874016 36.417324
# 8 vertices

vn 0.000000 -1.000000 -0.000000
vn 0.000000 1.000000 -0.000000
vn 0.000000 0.000000 1.000000
vn 1.000000 0.000000 -0.000000
vn 0.000000 0.000000 -1.000000
vn -1.000000 0.000000 -0.000000
# 6 vertex normals

vt 1.000000 0.000000 0.000000
vt 1.000000 1.000000 0.000000
vt 0.000000 1.000000 0.000000
vt 0.000000 0.000000 0.000000
# 4 texture coords

g Box001
usemtl 01___Default
s 2
f -8/-4/-6 -6/-3/-6 -5/-2/-6 -7/-1/-6 
s 4
f -4/-1/-5 -3/-4/-5 -1/-3/-5 -2/-2/-5 
s 8
f -8/-1/-4 -7/-4/-4 -3/-3/-4 -4/-2/-4 
s 16
f -7/-1/-3 -5/-4/-3 -1/-3/-3 -3/-2/-3 
s 32
f -5/-1/-2 -6/-4/-2 -2/-3/-2 -1/-2/-2 
s 64
f -6/-1/-1 -8/-4/-1 -4/-3/-1 -2/-2/-1 
# 6 polygons

#
# object Box002
#

v  -39.370079 0.000000 -36.417324
v  39.370079 0.000000 -36.417324
v  -39.370079 0.000000 -42.322834
v  39.370079 0.000000 -42.322834
v  -39.370079 7.874016 -36.417324
v  39.370079 7.874016 -36.417324
v  -39.370079 7.874016 -42.322834
v  39.370079 7.874016 -42.322834
# 8 vertices

vn 0.000000 -1.000000 -0.000000
vn 0.000000 1.000000 -0.000000
vn 0.000000 0.000000 1.000000
vn 1.000000 0.000000 -0.000000
vn 0.000000 0.000000 -1.000000
vn -1.000000 0.000000 -0.000000
# 6 vertex normals

vt 1.000000 0.000000 0.000000
vt 1.000000 1.000000 0.000000
vt 0.000000 1.000000 0.000000
vt 0.000000 0.000000 0.000000
# 4 texture coords

g Box002
usemtl 01___Default
s 2
f -8/-4/-6 -6/-3/-6 -5/-2/-6 -7/-1/-6 
s 4
f -4/-1/-5 -3/-4/-5 -1/-3/-5 -2/-2/-5 
s 8
f -8/-1/-4 -7/-4/-4 -3/-3/-4 -4/-2/-4 
s 16
f -7/-1/-3 -5/-4/-3 -1/-3/-3 -3/-2/-3 
s 32
f -5/-1/-2 -6/-4/-2 -2/-3/-2 -1/-2/-2 
s 64
f -6/-1/-1 -8/-4/-1 -4/-3/-1 -2/-2/-1 
# 6 polygons

#
# object Box003
#

v  -33.464565 0.000000 39.370079
v  -33.464569 0.000000 -39.370079
v  -39.370079 0.000000 39.370079
v  -39.370083 0.000000 -39.370079
v  -33.464565 7.874016 39.370079
v  -33.464569 7.874016 -39.370079
v  -39.370079 7.874016 39.370079
v  -39.370083 7.874016 -39.370079
# 8 vertices

vn 0.000000 -1.000000 -0.000000
vn 0.000000 1.000000 -0.000000
vn 1.000000 0.000000 -0.000000
vn -0.000000 0.000000 -1.000000
vn -1.000000 0.000000 0.000000
vn 0.000000 0.000000 1.000000
# 6 vertex normals

vt 1.000000 0.000000 0.000000
vt 1.000000 1.000000 0.000000
vt 0.000000 1.000000 0.000000
vt 0.000000 0.000000 0.000000
# 4 texture coords

g Box003
usemtl 01___Default
s 2
f -8/-4/-6 -6/-3/-6 -5/-2/-6 -7/-1/-6 
s 4
f -4/-1/-5 -3/-4/-5 -1/-3/-5 -2/-2/-5 
s 8
f -8/-1/-4 -7/-4/-4 -3/-3/-4 -4/-2/-4 
s 16
f -7/-1/-3 -5/-4/-3 -1/-3/-3 -3/-2/-3 
s 32
f -5/-1/-2 -6/-4/-2 -2/-3/-2 -1/-2/-2 
s 64
f -6/-1/-1 -8/-4/-1 -4/-3/-1 -2/-2/-1 
# 6 polygons

#
# object Box004
#

v  39.370083 0.000000 39.370079
v  39.370079 0.000000 -39.370079
v  33.464569 0.000000 39.370079
v  33.464565 0.000000 -39.370079
v  39.370083 7.874016 39.370079
v  39.370079 7.874016 -39.370079
v  33.464569 7.874016 39.370079
v  33.464565 7.874016 -39.370079
# 8 vertices

vn 0.000000 -1.000000 -0.000000
vn 0.000000 1.000000 -0.000000
vn 1.000000 0.000000 -0.000000
vn -0.000000 0.000000 -1.000000
vn -1.000000 0.000000 0.000000
vn 0.000000 0.000000 1.000000
# 6 vertex normals

vt 1.000000 0.000000 0.000000
vt 1.000000 1.000000 0.000000
vt 0.000000 1.000000 0.000000
vt 0.000000 0.000000 0.000000
# 4 texture coords

g Box004
usemtl 01___Default
s 2
f -8/-4/-6 -6/-3/-6 -5/-2/-6 -7/-1/-6 
s 4
f -4/-1/-5 -3/-4/-5 -1/-3/-5 -2/-2/-5 
s 8
f -8/-1/-4 -7/-4/-4 -3/-3/-4 -4/-2/-4 
s 16
f -7/-1/-3 -5/-4/-3 -1/-3/-3 -3/-2/-3 
s 32
f -5/-1/-2 -6/-4/-2 -2/-3/-2 -1/-2/-2 
s 64
f -6/-1/-1 -8/-4/-1 -4/-3/-1 -2/-2/-1 
# 6 polygons

