# 3ds Max Wavefront OBJ Exporter v0.97b - (c)2007 guruware
# File Created: 27.03.2015 13:39:42

mtllib arrow.mtl

#
# object Line002
#

#
# object Line001
#

v  -61.654182 9.219971 -8.621457
v  -61.654182 9.219971 11.413692
v  -1.197241 9.219971 11.413692
v  -3.629330 9.219971 24.770460
v  25.490622 9.219971 1.559169
v  -5.035305 9.219971 -21.275234
v  -1.197241 9.219971 -8.621457
v  -61.654182 12.700389 -8.621457
v  -61.654182 12.700389 11.413692
v  -1.197241 12.700389 11.413692
v  -3.629330 12.700389 24.770460
v  25.490622 12.700389 1.559169
v  -5.035305 12.700389 -21.275234
v  -1.197241 12.700389 -8.621457
# 14 vertices

vn -0.707107 0.000000 -0.707107
vn -1.000000 0.000000 -0.000000
vn 0.000000 0.000000 1.000000
vn -0.983823 0.000000 -0.179141
vn 0.623308 0.000000 0.781977
vn 0.598992 0.000000 -0.800755
vn -0.956949 0.000000 0.290256
vn 0.000000 0.000000 -1.000000
vn 0.000000 -1.000000 -0.000000
vn 0.000000 1.000000 -0.000000
# 10 vertex normals

g Line001
usemtl wire_135006006
s 1
f -14//-10 -13//-9 -6//-9 -7//-10 
s 4
f -13//-8 -12//-8 -5//-8 -6//-8 
s 2
f -12//-7 -11//-7 -4//-7 -5//-7 
s 4
f -11//-6 -10//-6 -3//-6 -4//-6 
s 2
f -10//-5 -9//-5 -2//-5 -3//-5 
s 4
f -9//-4 -8//-4 -1//-4 -2//-4 
s 3
f -8//-3 -14//-10 -7//-10 -1//-3 
s 16
f -10//-2 -12//-2 -8//-2 -9//-2 
f -12//-2 -10//-2 -11//-2 
f -13//-2 -14//-2 -8//-2 -12//-2 
f -3//-1 -2//-1 -1//-1 -5//-1 
f -5//-1 -4//-1 -3//-1 
f -6//-1 -5//-1 -1//-1 -7//-1 
# 11 polygons - 2 triangles

